<svg width="14.000000" height="14.000000" viewBox="0 0 14 14" fill="none" xmlns="http://www.w3.org/2000/svg" xmlns:xlink="http://www.w3.org/1999/xlink">
	<desc>
			Created with Pixso.
	</desc>
	<defs/>
	<path d="M4.20001 0.699951C4.20001 0.514404 4.12622 0.336182 3.995 0.205078C3.86371 0.0737305 3.68567 0 3.5 0C3.31433 0 3.13629 0.0737305 3.005 0.205078C2.87378 0.336182 2.79999 0.514404 2.79999 0.699951L4.20001 0.699951ZM2.79999 2.80005C2.79999 2.9856 2.87378 3.16382 3.005 3.29492C3.13629 3.42627 3.31433 3.5 3.5 3.5C3.68567 3.5 3.86371 3.42627 3.995 3.29492C4.12622 3.16382 4.20001 2.9856 4.20001 2.80005L2.79999 2.80005ZM7.70001 0.699951C7.70001 0.514404 7.62622 0.336182 7.495 0.205078C7.36371 0.0737305 7.18567 0 7 0C6.81433 0 6.63629 0.0737305 6.505 0.205078C6.37378 0.336182 6.29999 0.514404 6.29999 0.699951L7.70001 0.699951ZM6.29999 2.80005C6.29999 2.9856 6.37378 3.16382 6.505 3.29492C6.63629 3.42627 6.81433 3.5 7 3.5C7.18567 3.5 7.36371 3.42627 7.495 3.29492C7.62622 3.16382 7.70001 2.9856 7.70001 2.80005L6.29999 2.80005ZM11.2 0.699951C11.2 0.514404 11.1262 0.336182 10.995 0.205078C10.8637 0.0737305 10.6857 0 10.5 0C10.3143 0 10.1363 0.0737305 10.005 0.205078C9.87378 0.336182 9.79999 0.514404 9.79999 0.699951L11.2 0.699951ZM9.79999 2.80005C9.79999 2.9856 9.87378 3.16382 10.005 3.29492C10.1363 3.42627 10.3143 3.5 10.5 3.5C10.6857 3.5 10.8637 3.42627 10.995 3.29492C11.1262 3.16382 11.2 2.9856 11.2 2.80005L9.79999 2.80005ZM0.700012 4.19995C0.514343 4.19995 0.336304 4.27368 0.205017 4.40503C0.0737305 4.53638 0 4.71436 0 4.8999C0 5.08569 0.0737305 5.26367 0.205017 5.39502C0.336304 5.52637 0.514343 5.6001 0.700012 5.6001L0.700012 4.19995ZM13.3 5.6001C13.4857 5.6001 13.6637 5.52637 13.795 5.39502C13.9263 5.26367 14 5.08569 14 4.8999C14 4.71436 13.9263 4.53638 13.795 4.40503C13.6637 4.27368 13.4857 4.19995 13.3 4.19995L13.3 5.6001ZM3.5 7.69995L3.5 7L2.79999 7L2.79999 7.69995L3.5 7.69995ZM3.5 7.70703L2.79999 7.70703L2.79999 8.40698L3.5 8.40698L3.5 7.70703ZM3.50702 7.70703L3.50702 8.40698L4.20697 8.40698L4.20697 7.70703L3.50702 7.70703ZM3.50702 7.69995L4.20697 7.69995L4.20697 7L3.50702 7L3.50702 7.69995ZM7 7.69995L7 7L6.29999 7L6.29999 7.69995L7 7.69995ZM7 7.70703L6.29999 7.70703L6.29999 8.40698L7 8.40698L7 7.70703ZM7.00702 7.70703L7.00702 8.40698L7.70703 8.40698L7.70703 7.70703L7.00702 7.70703ZM7.00702 7.69995L7.70703 7.69995L7.70703 7L7.00702 7L7.00702 7.69995ZM7 10.5L7 9.80005L6.29999 9.80005L6.29999 10.5L7 10.5ZM7 10.5071L6.29999 10.5071L6.29999 11.207L7 11.207L7 10.5071ZM7.00702 10.5071L7.00702 11.207L7.70703 11.207L7.70703 10.5071L7.00702 10.5071ZM7.00702 10.5L7.70703 10.5L7.70703 9.80005L7.00702 9.80005L7.00702 10.5ZM10.5 10.5L10.5 9.80005L9.79999 9.80005L9.79999 10.5L10.5 10.5ZM10.5 10.5071L9.79999 10.5071L9.79999 11.207L10.5 11.207L10.5 10.5071ZM10.507 10.5071L10.507 11.207L11.207 11.207L11.207 10.5071L10.507 10.5071ZM10.507 10.5L11.207 10.5L11.207 9.80005L10.507 9.80005L10.507 10.5ZM10.5 7.69995L10.5 7L9.79999 7L9.79999 7.69995L10.5 7.69995ZM10.5 7.70703L9.79999 7.70703L9.79999 8.40698L10.5 8.40698L10.5 7.70703ZM10.507 7.70703L10.507 8.40698L11.207 8.40698L11.207 7.70703L10.507 7.70703ZM10.507 7.69995L11.207 7.69995L11.207 7L10.507 7L10.507 7.69995ZM3.5 10.5L3.5 9.80005L2.79999 9.80005L2.79999 10.5L3.5 10.5ZM3.5 10.5071L2.79999 10.5071L2.79999 11.207L3.5 11.207L3.5 10.5071ZM3.50702 10.5071L3.50702 11.207L4.20697 11.207L4.20697 10.5071L3.50702 10.5071ZM3.50702 10.5L4.20697 10.5L4.20697 9.80005L3.50702 9.80005L3.50702 10.5ZM1.40002 2.80005L12.6 2.80005L12.6 1.3999L1.40002 1.3999L1.40002 2.80005ZM12.6 2.80005L14 2.80005C14 2.42871 13.8525 2.07251 13.59 1.81006C13.3274 1.54761 12.9713 1.3999 12.6 1.3999L12.6 2.80005ZM12.6 2.80005L12.6 12.6001L14 12.6001L14 2.80005L12.6 2.80005ZM12.6 12.6001L12.6 14C12.9713 14 13.3274 13.8525 13.59 13.5898C13.8525 13.3274 14 12.9712 14 12.6001L12.6 12.6001ZM12.6 12.6001L1.40002 12.6001L1.40002 14L12.6 14L12.6 12.6001ZM1.40002 12.6001L0 12.6001C0 12.9712 0.147522 13.3274 0.410034 13.5898C0.672607 13.8525 1.02869 14 1.40002 14L1.40002 12.6001ZM1.40002 12.6001L1.40002 2.80005L0 2.80005L0 12.6001L1.40002 12.6001ZM1.40002 2.80005L1.40002 1.3999C1.02869 1.3999 0.672607 1.54761 0.410034 1.81006C0.147522 2.07251 0 2.42871 0 2.80005L1.40002 2.80005ZM2.79999 0.699951L2.79999 2.80005L4.20001 2.80005L4.20001 0.699951L2.79999 0.699951ZM6.29999 0.699951L6.29999 2.80005L7.70001 2.80005L7.70001 0.699951L6.29999 0.699951ZM9.79999 0.699951L9.79999 2.80005L11.2 2.80005L11.2 0.699951L9.79999 0.699951ZM0.700012 5.6001L13.3 5.6001L13.3 4.19995L0.700012 4.19995L0.700012 5.6001ZM2.79999 7.69995L2.79999 7.70703L4.20001 7.70703L4.20001 7.69995L2.79999 7.69995ZM3.5 8.40698L3.50702 8.40698L3.50702 7.00708L3.5 7.00708L3.5 8.40698ZM4.20697 7.70703L4.20697 7.69995L2.80701 7.69995L2.80701 7.70703L4.20697 7.70703ZM3.50702 7L3.5 7L3.5 8.3999L3.50702 8.3999L3.50702 7ZM6.29999 7.69995L6.29999 7.70703L7.70001 7.70703L7.70001 7.69995L6.29999 7.69995ZM7 8.40698L7.00702 8.40698L7.00702 7.00708L7 7.00708L7 8.40698ZM7.70703 7.70703L7.70703 7.69995L6.30701 7.69995L6.30701 7.70703L7.70703 7.70703ZM7.00702 7L7 7L7 8.3999L7.00702 8.3999L7.00702 7ZM6.29999 10.5L6.29999 10.5071L7.70001 10.5071L7.70001 10.5L6.29999 10.5ZM7 11.207L7.00702 11.207L7.00702 9.80688L7 9.80688L7 11.207ZM7.70703 10.5071L7.70703 10.5L6.30701 10.5L6.30701 10.5071L7.70703 10.5071ZM7.00702 9.80005L7 9.80005L7 11.2L7.00702 11.2L7.00702 9.80005ZM9.79999 10.5L9.79999 10.5071L11.2 10.5071L11.2 10.5L9.79999 10.5ZM10.5 11.207L10.507 11.207L10.507 9.80688L10.5 9.80688L10.5 11.207ZM11.207 10.5071L11.207 10.5L9.80701 10.5L9.80701 10.5071L11.207 10.5071ZM10.507 9.80005L10.5 9.80005L10.5 11.2L10.507 11.2L10.507 9.80005ZM9.79999 7.69995L9.79999 7.70703L11.2 7.70703L11.2 7.69995L9.79999 7.69995ZM10.5 8.40698L10.507 8.40698L10.507 7.00708L10.5 7.00708L10.5 8.40698ZM11.207 7.70703L11.207 7.69995L9.80701 7.69995L9.80701 7.70703L11.207 7.70703ZM10.507 7L10.5 7L10.5 8.3999L10.507 8.3999L10.507 7ZM2.79999 10.5L2.79999 10.5071L4.20001 10.5071L4.20001 10.5L2.79999 10.5ZM3.5 11.207L3.50702 11.207L3.50702 9.80688L3.5 9.80688L3.5 11.207ZM4.20697 10.5071L4.20697 10.5L2.80701 10.5L2.80701 10.5071L4.20697 10.5071ZM3.50702 9.80005L3.5 9.80005L3.5 11.2L3.50702 11.2L3.50702 9.80005Z" fill="#95A1BB" fill-opacity="1.000000" fill-rule="nonzero"/>
</svg>
